<svg enable-background="new 0 0 2000 54.7" viewBox="0 0 2000 54.7" xmlns="http://www.w3.org/2000/svg"><path d="m880.1 54.6-879.9.1v-22.6s3.5-1.8 5.2-1.8 1.8 5.2 3.5 5.2 10.5 0 14-1.8 17.5-3.5 22.7-5.2 15.7 0 19.2 0 19.2 1.8 24.4 3.5 14 0 17.5 0 5.2 1.8 8.7 1.8 3.5-1.8 7-1.8 3.5 1.8 7 1.8 8.7 1.8 14 0 14 0 19.2-1.8 12.2-1.8 15.7-1.8 29.7 1.8 36.7 1.8 8.7 3.5 14 1.8 12.2-3.5 14-3.5 8.7 0 10.5-1.8 0-1.8 1.8-1.8h5.2c1.8 0 3.5 0 5.2-1.8s5.2-1.8 5.2-1.8 0-3.5 1.8-3.5h8.7c1.8 0 7 0 10.5-1.8s3.5-1.8 7-1.8 5.2 0 7 1.8 3.5 3.5 5.2 3.5h3.3c1.8 0 5.2 1.8 7 1.8s7-1.8 8.7-1.8 5.2 1.8 8.7 1.8h12.2c1.8 0 1.8 3.5 5.2 1.8 3.5-1.7 7-5.2 10.5-7s7-3.5 8.7-1.8 8.7-1.8 10.5-1.8 1.8 3.5 3.5 3.5h10.6c3.5 0 3.5-1.8 5.2-1.8h7c3.5 0 5.2-1.8 8.7 0s8.7 0 10.5 0 3.5 3.5 5.2 3.5h3.5c1.8 0 3.5-1.8 7-1.8s14 1.8 19.2 3.5 7 1.8 8.7 0 5.2-1.8 7-1.8 3.5 1.8 5.2 1.8h5.2c5.2 0 8.7 1.8 12.2 0 2.1-1.2 4.5-1.8 7-1.8 1.8 0 7 1.8 8.7 1.8s7 0 8.7-1.8 10.5 0 12.2 0h5.2c1.8 0 5.2 0 7-1.8s1.8 0 5.2-1.8 5.2-5.2 7-5.2h5.2c3.5 0 7 1.8 10.5 1.8s8.7 3.5 10.5 5.2 3.5 0 7 0 5.6-.3 9.1-.3 4.8.3 6.6-1.5 3.5 0 7 0h17.5c3.5 0 12.2 8.7 15.7 7s7 0 8.7-1.8 7 1.8 10.5 0 5.2 0 5.2 0 1.8-1.8 3.5-1.8 3.5 3.5 5.2 1.8 3.5-1.8 5.2-1.8 5.2-1.8 7-1.8 5.2 3.5 8.7 1.8 5.2-3.5 7-3.5 3.5-1.8 5.2-1.8h7c3.5 0 3.5 0 7-1.8s3.5 1.8 7 0 5.2 0 8.7 0 8.7-1.8 10.5-1.8h5.2c3.5 0 7.4-3.8 10.9-5.5s8.8-5.6 12.3-5.6 1.3.6 8.2.6 5.5-.2 10.7 1.6 5-1.6 6.8.2-1.8 1.8 1.8 1.8 7.1 1.8 8.7 0-.9-.8 5.1-.8c3.5 0 3.7.8 7.2.8s3.2 1.4 8.4 1.4 5.5.3 7.3.3h7c3.5 0 0-1.8 3.5 0s1.8 3.5 5.2 3.5 5.2 1.8 7 1.8c1.3.2 2.5.8 3.5 1.7v.5l1.1 1.1c1.1 1.1 3.3 0 4.5 1.1s5.6 1.1 7.8 1.1 7.8 1.1 10 0 11.2 2.2 14.5 2.2 4.2-1.1 6.4-1.1 8.9 2.2 12.3 2.2 10-1.1 12.3-1.1h11.2c2.2 0 13.4-2.2 15.6-2.2s4.5 1.1 7.8 1.1 6.7 1.1 8.9 1.1c3.1-.2 6.1-1 8.9-2.2 2.2-1.1 4.5 0 5.6 0h5.6c2.2 0 5.6 1.1 8.9 0s6.7-1.1 10-1.1 5.6 0 7.8-1.1 7.8 0 10 0 8.9-2.2 12.3-2.2c3.3 0 2.2-2.2 4.5-2.2s5.6 1.1 6.7 1.1h8.9c2.2 0 3.3-2.2 5.6-1.1s4.5 0 6.7 1.1 5.6-2.2 8.9-3.3 6.7-2.2 10-2.2 4.5-1.1 8.9-1.1 12.3 2.2 14.5 2.2 4.5 2.2 6.7 3.3c2.8 1.3 5.8 2 8.9 2.2 2.3.2 4.6-.2 6.7-1.1s4.4-1.3 6.7-1.1h18.9c2.2 0 6.7 0 8.9-1.1s6.7 0 7.8 0c3.8.4 7.5 1.2 11.2 2.2 3.3 1.1 7.8 2.2 10 2.2s4.5-1.1 7.8-1.1 8.9-2.2 11.2-2.2 4.5 1.1 6.7 1.1h17.8c1.1 0 2.2-1.1 3.3-1.1.8.1 1.6.5 2.2 1.1 1.4.6 3 .6 4.5 0 2.2-1.1 3.3 1.1 4.5 1.1h10c3.3 0 5.6-1.1 7.8 1.1s3.3 0 5.6 0h13.4c2.2 0 8.9 1.1 11.2 2.2s2.2 1.1 4.5 1.1 4.5-1.1 6.7-2.2 2.2-2.2 3.3-1.1 4.5-1.1 6.7-1.1 7.8-2.2 8.9-2.2 8.9-1.1 10 0 2.2 2.2 4.5 2.2h13.4c1.1 0 4.5 1.1 6.7 1.1h5.6c3.3 0 3.3 0 7.8 1.1s10 0 12.3 1.1c2.8 1.4 5.8 2.2 8.9 2.2 3.3 0 16.7-3.3 20.1-3.3s8.9-2.2 11.2-3.3c2.5-1.1 5.3-1.1 7.8 0 5.4 2.4 11 4.2 16.7 5.6 5.6 1.1 21.2 0 23.4 0s5.6 1.1 10 1.1h6.7c2.2 0 7.8-2.2 10-2.2s3.3 2.2 5.6 2.2 3.3-2.2 4.5-3.3c1.3-1.1 3.2-1.1 4.5 0 1.1 1.1 5.6 2.2 8.9 3.3s2.2 0 5.6 1.1 3.3-1.1 6.7-1.1 6.7-2.2 10-2.2 4.5 2.2 6.7 2.2 7.8-2.2 10-3.3 5.6 1.1 7.8 2.2 4.5-1.1 6.7-1.1h7.8c3.1.2 6.1 1 8.9 2.2 2.2 1.1 6.7 1.1 8.9 1.1 2.4.2 4.8-.2 6.9-1.1 2.1-1.1 4.6-1.1 6.7 0 1.7.9 3.6 1.3 5.6 1.1 2.2 0 4.5 2.2 6.7 2.2h8.9c2.2 0 8.9-2.2 11.2-2.2 2.1 0 4 .8 5.6 2.2 1.1 1.1 5.6 2.2 7.8 2.2 3.4-.2 6.8-1 10-2.2 2.2-1.1 4.5 0 6.7 1.1s6.7 1.1 8.9 1.1c3.4-.2 6.8-1 10-2.2 2.2-1.1 6.7-2.2 8.9-1.1s7.8 1.1 10 1.1 7.8-2.2 11.2-2.2h8.9c2.2 0 7.8-3.3 10-4.5s5.6-1.1 6.7-1.1 5.6 3.3 6.7 3.3 2.2-1.1 3.3-1.1 3.3 1.1 5.6 2.2 4.5 2.2 5.6 1.1 4.5 0 5.6 1.1 2.2 1.1 4.5 1.1h5.6c1.1 0 3.3-1.1 5.6 0s7.8 0 10 0 22.3-7.8 24.5-8.9c3.6-1.5 7.6-1.5 11.2 0 2.2 1.1 3.3 2.2 5.6 2.2s7.8-5.6 10-5.6c2.1 0 4 .8 5.6 2.2 1.2 1.2 2.8 2 4.5 2.2h4.5c1.1 0 6.7 1.1 7.8 2.2s6.7 2.2 8.9 2.2 6.7-2.2 10-2.2 6.7-3.3 8.9-3.3 2.2 1.1 4.5 2.2 7.8 1.1 10 1.1 4.5-1.1 6.7-2.2 4.5-2.2 6.7-2.2h6.7c2.1 0 4 .8 5.6 2.2 1.1 1.1 3.3 0 4.5 0 2.3-.4 4.6-1.1 6.7-2.2 2.2-1.1 2.2 0 3.3 1.1s5.6-2.2 5.6-2.2v44.6h-1120.6z" fill="#fff"/></svg>