<svg enable-background="new 0 0 37.8 30" height="30" viewBox="0 0 37.8 30" width="37.8" xmlns="http://www.w3.org/2000/svg"><path d="m18.9 2.8c4 0 4.4 0 6 .1 4 .2 5.9 2.1 6.1 6.1.1 1.6.1 2 .1 6s0 4.4-.1 6c-.2 4-2.1 5.9-6.1 6.1-1.6.1-2 .1-6 .1s-4.4 0-6-.1c-4-.2-5.9-2.1-6.1-6.1-.1-1.6-.1-2-.1-6s0-4.4.1-6c.2-4 2.1-5.9 6.1-6.1 1.6 0 2-.1 6-.1zm0-2.6c-4 0-4.5 0-6.1.1-5.4.2-8.4 3.2-8.6 8.6-.1 1.6-.1 2.1-.1 6.1s0 4.5.1 6.1c.2 5.4 3.2 8.4 8.6 8.6 1.6.1 2.1.1 6.1.1s4.5 0 6.1-.1c5.4-.2 8.4-3.2 8.6-8.6.1-1.6.1-2.1.1-6.1s0-4.5-.1-6.1c-.2-5.4-3.2-8.4-8.6-8.6-1.6-.1-2.1-.1-6.1-.1zm0 7.2c-4.2 0-7.6 3.4-7.6 7.6s3.4 7.6 7.6 7.6 7.6-3.4 7.6-7.6-3.4-7.6-7.6-7.6zm0 12.5c-2.7 0-4.9-2.2-4.9-4.9s2.2-4.9 4.9-4.9 4.9 2.2 4.9 4.9-2.2 4.9-4.9 4.9zm7.9-14.6c-1 0-1.8.8-1.8 1.8s.8 1.8 1.8 1.8 1.8-.8 1.8-1.8-.8-1.8-1.8-1.8z" fill="#0d3a3d"/></svg>